<svg version="1" xmlns="http://www.w3.org/2000/svg" width="481.333" height="481.333" viewBox="0 0 361.000000 361.000000"><path d="M124 3c0 1-.4 2.1-.9 2.4-.5.4-.7-.4-.5-1.6.4-2.3.4-2.3-.6 0-.5 1.3-.7 2.8-.4 3.3.3.6 0 1.7-.8 2.6-1.1 1.5-1.1 1.6.5 1 1.1-.4 1.6-.3 1.2.3-.3.6-.1 1 .5 1 .8 0 1-.9.6-2.4-.4-1.8.1-2.9 2.6-5 1.8-1.4 2.8-2.6 2.2-2.7-.5 0-1.7-.2-2.6-.4-1.2-.2-1.8.3-1.8 1.5zM127 6.4c-.5.5-1 1.4-1 2 0 .5.7.1 1.6-1 1.3-1.6 1.5-1.6 1-.2-.3 1-.1 1.9.4 1.9.6.1 1.4.2 1.9.3 1.5.2 2.6 1.6 1.3 1.6-.7 0-1.2.7-1.2 1.5s.5 1.5 1 1.5c.6 0 1 .7 1 1.5s.5 1.5 1.1 1.5c.5 0 .7.6.3 1.2-.5.8 0 .7 1.1-.2 1.7-1.4 1.8-1.4.7.6-.9 1.7-.9 2.4.3 3.4.8.7 1.2 1.6.9 2.1-.3.5 0 .9.7.9.6 0 .9.8.6 1.9-.3 1.1.1 2.2.9 2.5.7.3 1.2 1.3 1.2 2.3 0 1 .5 3.1 1.2 4.8.7 1.6 1.2 3.6 1.1 4.2-.1.7.3 1.3.9 1.3.5 0 1-.8 1.1-1.8 0-1.1.2-1.2.6-.4.3.7-.1 2-.8 2.8-1.1 1.4-1 1.8.4 2.9 1 .7 1.3 1.5.8 1.6-.7.3-.6 1.9.3 4.8.7 2.6 1.6 4 2 3.3.4-.7.4-1.7 0-2.4-.5-.8-.2-.9.9-.5 1.6.6 1.6.5.1-1.8-.9-1.3-1.3-2.9-.9-3.5.3-.5-.4-1.4-1.7-1.9-1.3-.6-1.7-1-1-1 1.3-.1 1.7-6.1.4-6.1-.5 0-.9-.6-.9-1.3-.1-2.4-.8-4-3-6.3-2.3-2.3-3.2-5.1-1.3-3.9 1.6 1 1.2-1.2-.5-2.9-.8-.8-1.5-2.4-1.5-3.5s-1.1-2.8-2.5-3.7c-2.5-1.6-3.7-4.2-1.2-2.8.6.5 0-.8-1.5-2.8-1.6-2-2.8-4.1-2.8-4.6 0-1.2-2.7-1.1-4 .2zM144.5 36c.3.5.1 1-.4 1-.6 0-1.1-.5-1.1-1 0-.6.2-1 .4-1 .3 0 .8.4 1.1 1zm3.3 14.5c-.3.3-.9-.2-1.2-1.2-.6-1.4-.5-1.5.5-.6.7.7 1 1.5.7 1.8zM110.5 12.8c-2.4 2.7-2.7 7.1-.5 6.5.9-.2 1.7-1.4 1.7-2.6.2-1.5 0-1.8-.6-.8-.5.8-1.1.9-1.5.3-.3-.5 0-1.5.8-2.1 1-.8 2-.6 4 1 1.4 1.1 2.6 2.7 2.6 3.5 0 .8.7 1.7 1.5 2 .8.4 1.3.9 1 1.3-.2.4.2 1.9 1 3.4 1.2 2.4 1.2 2.8-.3 3.7-.9.5-1.2 1-.6 1 .7 0 1 1.3.9 3-.1 1.6.1 3 .6 3s.6.6.3 1.4c-.4 1.1 0 1.3 1.6.9 1.2-.3 1.8-.9 1.3-1.2-1.6-1.2-1-4.7.9-4.7 2.1 0 2.3.7.7 2.3-.9.9-.7 1 1 .6 2.1-.5 3-3.3 1.1-3.3-.5 0-1-.8-1.1-1.8 0-1.5-.1-1.5-.8.2-.5 1.4-1 1.6-1.5.8-.4-.7-1.2-1-1.7-.7-.5.3-.6-.1-.2-1 .4-1.2.8-1.3 1.3-.4.6.8.9.6 1.2-.7.2-1-.2-2.8-.9-3.9-.7-1.2-1.1-3.1-.9-4.2.4-1.8-.1-2.3-2.7-2.8-1.8-.4-4.4-2.1-5.8-3.8l-2.6-3-1.8 2.1zm11 7.2c.3.6-.1.7-.9.4-1.8-.7-2.1-1.4-.7-1.4.6 0 1.3.4 1.6 1z"/><path d="M128.5 12c-.3.5-.1 1 .4 1 .6 0 1.1-.5 1.1-1 0-.6-.2-1-.4-1-.3 0-.8.4-1.1 1zM120.2 14.1c.1 1.3 1.1 2.5 2 2.7 1.5.3 1.6-.1.9-1.9-1.1-3.2-3.4-3.8-2.9-.8zM129 14.4c0 .2.8 1 1.8 1.7 1.5 1.3 1.6 1.2.3-.4s-2.1-2.1-2.1-1.3zM108.3 23.1c.3 1.2.2 3.1-.2 4.3-.5 1.5-.2 2.6 1 3.8.9.9 2 1.4 2.3 1.1.3-.3-.2-1.2-1.2-2-1.3-1-1.4-1.3-.2-1.1 1 .2 1.4-.4 1.2-2-.2-1.5.2-2.2 1.5-2.3 1.2-.1 1-.3-.7-.8-1.4-.4-2.4-1.3-2.2-1.9.1-.7-.3-1.2-.9-1.2-.7 0-.9.9-.6 2.1zM132.5 23.1c-.4.6-.5 1.2-.2 1.5.2.3.7-.2 1-1.1.7-1.7.1-2-.8-.4z"/><path d="M107.9 31.2c-.6 2-.5 3.7.1 3.3 1-.6.7 6.5-.3 8.3-.5.6-.5 1.2-.1 1.2.3 0-.1 1.1-1 2.5-1.6 2.4-1.2 3.1 1.7 2.6.4 0 .7.4.7 1s-.7.8-1.7.5c-1-.4-1.4-.4-1.1 0 .4.4.3 1.5-.3 2.5-.7 1.5-.2 2.6 2.6 5.5 2 2 3.9 3.4 4.3 3 .3-.4-.6-1.7-2.1-2.9-2.8-2.2-2.8-2.3-1.2-5.7l1.5-3.5-.2 3.3c-.2 1.9.3 3.6 1 4.1.8.5 1.4 1.2 1.3 1.7 0 .5.9.8 2 .7 2-.3 2.6 1.1.9 2.2-.6.4-.8 1-.5 1.5.3.5-.4.7-1.5.5-1.1-.2-2 0-2 .6 0 .5.6.9 1.3.9.8 0 1.4.7 1.4 1.5s-.4 1.2-.9.9c-.4-.3-.8.1-.8.8 0 .8-.5.6-1.1-.5-1.3-2.2-4.1-2.3-3.2-.1.5 1.3.7 1.3 1.4.2.7-1 .9-.9.9.5 0 1.3.5 1.7 1.8 1.3.9-.3 2.3-.2 3 .3 1.1.7 1.1 1.1-.1 2.2-.7.8-1.2 2-.9 2.8.3.8 0 1.1-.6.8-.5-.4-1.5 0-2.2.7-.9 1.2-.7 1.7 1.2 2.7 1.3.7 2.6 1.2 3.1 1.1 1.4-.4.7 1.6-.9 2.2-.8.3-1.3.2-1-.3.3-.5-.1-1.1-.9-1.4-1.1-.5-1.2-.1-.6 1.6 1 2.5 1.1 3.1 1.1 5.4 0 1.5.2 1.6 1 .3.8-1.2.9-1 .7.7-.2 1.2-.7 2.6-1.2 3-.4.5-.5.3-.2-.3.4-.7 0-1.7-.8-2.4s-1.5-.9-1.5-.5c0 .5-.9-.2-2-1.5-1.2-1.4-2.6-2-3.7-1.6-1.3.4-1.1 0 .6-1.4 1.3-1.1 2-2 1.6-2-.4 0-.2-.7.5-1.5.7-.9 1-1.8.6-2.2-.3-.3-.6 0-.6.7 0 2.3-1.9-.2-2.3-3-.4-2.4-3.7-4.3-3.7-2.1 0 .6.6.8 1.3.5.8-.3 1.3.4 1.3 2 0 1.8-.5 2.4-1.8 2.3-1.2-.1-1.6-.7-1.3-1.6.3-.9.3-1.2-.1-.8-.4.4-1.8 0-3-.8-2.1-1.3-2.3-1.3-1.8 0 .4.8 1.2 1.5 2 1.5s1.3.3 1.3.7c-.5 2.9.3 5.3 1.7 5.3 1.2 0 1.5.7 1.2 2.4-.4 1.7-.1 2.3.9 1.9.7-.3 1.3-.1 1.3.4 0 .6 2.3 3.4 5.2 6.4 2.9 3 4.9 4.7 4.4 3.9-.4-.8 0-.6.8.4.9 1.1 1.6 2.6 1.6 3.4 0 .7.4 1 1 .7.5-.3 1.8-.1 2.7.5 1.5 1 1.5 1.1.1.6-1-.3-1.5.1-1.4.9.3 1.8 2.6 4.5 3.9 4.5.5 0 0-.9-1.2-1.9-2.2-1.9-2.2-2-.3-1.8 1.2 0 1.9.4 1.6.8-.2.4.1 1.1.7 1.4.7.5.2 1.6-1.3 3.3l-2.3 2.6 3.4-2.4 3.4-2.3-1.9 2.9c-1 1.6-1.1 2.3-.4 1.6 1.8-1.5 3.4-1.6 2.4 0-.5.8-.2.9.9.5.9-.3 1.9-.2 2.2.4.4.5 1 .7 1.5.4.5-.3 1.1-.1 1.4.4.4.5-.2.8-1.1.6-1-.2-1.8-.4-1.8-.5 0-.1-1-.3-2.2-.4-3.1-.4-5.1 1-2.7 1.8 1.1.3 2.7 2 3.7 3.7 1.1 1.9 2.3 2.9 3.1 2.6 1-.4 1.6.2 1.8 1.6.2 1.2.9 2.1 1.7 1.9.7-.1 2.2.9 3.3 2.3 1.3 1.7 2.6 2.4 3.7 2 1.2-.5 1.3-.4.4.6-1 1-.2 2.1 3.4 5.3 5.2 4.5 6.9 5.2 6.9 2.6 0-1-.4-1.6-.8-1.4-.7.4-.5-2.7.2-4.6.2-.3.2-.8.2-1.1-.1-.3.5-.6 1.2-.6.8 0 1.2 1.2 1.1 2.9-.2 3 1.2 3.6 3.4 1.6 1.1-1.1 1.3-.9.8.9-.3 1.3 0 2.6.5 3 .7.3.8.1.4-.5-.4-.7-.2-1.2.3-1.2.6 0 1.1.7 1.1 1.5s-.5 1.5-1.1 1.5c-2.6 0-18.3 8.2-29 15.2-22.2 14.5-43.3 37.9-55.2 61.5-4 7.8-7.7 23.3-7.7 32 0 5.4-.3 7.2-1.2 6.7-.7-.5-.9-.2-.5.9.4 1 0 1.8-1.3 2.2-1 .3-2.1 1.7-2.4 3-.4 1.4-1.1 2.5-1.7 2.5-.6 0-.7-.4-.4-1 .4-.6-.1-.7-1.1-.3-1.6.6-1.5.7.2 2 1.6 1.2 1.6 1.3.1 1.3-.9 0-1.7.4-1.7 1 0 .5.5 1 1 1 .6 0 1 .4 1 .8s-.9.8-1.9.8c-1.1 0-1.7-.4-1.4-.9.3-.5 0-.8-.6-.6-.7.3-1.2.9-1.2 1.4.2 1.5 8.2.8 9.7-.8.4-.4 1.8-.7 3-.7 1.8 0 3 1.3 5.4 6.1 7.7 15.2 12.4 20.5 26.8 30.2 11.4 7.7 13.8 8.7 21.7 9.6l6 .6-.3 3.5c-.2 1.9-.8 4.3-1.4 5.4-.7 1.3-.7 1.6.1 1.2.6-.4 1.1-.2 1.1.3 0 .6-.4 1.1-.8 1.1-.5 0-.9 1.4-1 3.1 0 1.7-.7 3.8-1.4 4.7-.7.9-.8 1.3-.2.9.7-.4 1.5 0 1.8.9.4 1.2.2 1.5-.9 1.1-.8-.4-1.7-.1-2.1.5-.4.7-.3.8.4.4s1.2-.2 1.2.4c0 .6-.7 1.3-1.5 1.6-.8.4-1.2 1.1-.9 1.6.4.6 1 .5 1.5-.3.6-1 .9-.8.9.9 0 1.4-.5 2.2-1.2 2-1.1-.4-7.2 6.5-7.3 8.2 0 .3-.4 1.1-.8 1.7-1 1.6 0 3.3 1.9 3.3.8 0 1.4-.9 1.4-2.1 0-1.1-.5-1.7-1-1.4-.6.4-.7 1.1-.4 1.7.4.7.2.8-.5.4-.8-.6-.9-1.2-.2-2 .6-.7.7-1.7.3-2.2-.4-.5.4 0 1.7 1.1 1.4 1.1 2.1 1.5 1.8.9-.4-.7 0-1.5.9-1.8 1.9-.7 4.4-6.6 4.4-10.4 0-1.6.3-3.2.8-3.6.4-.4.7-1.1.8-1.4 0-.4.4-1.5.7-2.5 1.5-3.7 1.5-4.5.4-5.7-.9-1-.9-1.1.2-.5 1.1.6 1.3.3.9-1.3-.4-1.2-.1-2.2.4-2.2.6 0 .4-.8-.3-1.7-.8-.9-.9-1.4-.4-1.1.7.4 1-.7.9-3.2l-.1-3.9 24-.1c21.6 0 25.2-.3 36.4-2.5 22.4-4.6 43.4-12.7 55.9-21.7 4.1-2.9 7.3-3.3 4.6-.6-1.6 1.6-1.5 3.1.1 2.2.9-.6.9-.5 0 .7-.7.9-.8 2-.3 2.8.4.8.6 2 .3 2.7-.2.6 0 1.5.5 1.8 1.4.9 4.3-.4 3.6-1.6-.3-.5-1.3-.4-2.2.4-1.6 1.2-1.6 1.1-.1-.7 1.7-2.1 1.6-6.3-.2-9.7-.8-1.6-.5-2.3 1.8-4 1.5-1.2 6.9-6.2 11.9-11.3 7.6-7.7 9.9-10.7 13.3-17.9 8.7-18.3 12.9-38.9 11.1-54.7-.5-4.7-.3-5.5 1.1-5.5 1 0 1.5.5 1.2 1-.8 1.2 1.6-.2 4.7-2.8 1.4-1.2 2.2-1.7 1.8-1.2-.4.5-.3 1.5.3 2.2 1.5 1.8 6.1-2.5 4.6-4.4-.6-.8-.6-1.2.2-1.2 2.9 0 .4-5.9-4.4-10.3-5-4.7-7.5-6.7-7.7-6.6-1 .3-6.1-2.5-10.1-5.5-2.6-2-5.1-3.6-5.6-3.6-.4 0-1.2-.9-1.7-1.9-1.7-3.6-19.9-22.2-23.6-24.2-2.1-1-5-1.9-6.5-1.9s-7.3-1.1-12.8-2.4c-17.8-4.2-39.4-2.4-62.5 5.1-.8.3 2.1-3 6.5-7.3 5.7-5.5 7.9-8.4 7.7-9.8-.2-1.7-.1-1.8.8-.6.9 1.3 1.2 1.2 2.6-.5.8-1.1 2-2 2.7-2 .7-.1 1.1-.7.9-1.4-.1-.7.2-1 .8-.6.5.3 1.4-.5 1.9-1.8s1.7-2.7 2.6-3.1c1.1-.4 1.5-1.2 1.1-2.2-.5-1.4-.4-1.5.9-.4 1.2 1 1.5 1 1.7-.4 0-.9.1-2.1.2-2.6.1-.6-.2-1-.6-1-.5 0-.8.2-.8.5s-1.6 2.1-3.5 4.1c-2.2 2.2-4 3.2-4.8 2.7-.9-.5-.8-.8.5-1.1 1.8-.4 3.1-2.9 2.2-4.3-.3-.6-1.1-.5-2 .2-.8.7-1.4.7-1.4.1 0-.5.7-1.3 1.6-1.6.8-.3 1.2-1.1.9-1.6-.4-.6-.1-1.7.5-2.5 1-1.2 1-1.5-.1-1.5-.8 0-.6-.5.6-1.3 1-.8 1.5-1.9 1.1-2.5-.4-.7-.3-1.2.3-1.2s1.8-1.4 2.6-3c.9-1.7 2-2.8 2.5-2.5.6.4 1-.1 1-1s-.5-1.3-1-1c-1.2.8 1.1-4.7 2.4-5.6.5-.4.5-1.2.1-1.9-.6-.9-.4-1.1.5-.5.8.5 1.1.3.8-.6-.3-.8.2-2 .9-2.8 1.1-1 1.1-1.7.3-2.5s-1.3-.7-2 .4c-.6.9-1 1-1 .3 0-1.8 2-2.7 3.3-1.4.6.6 1.4 1.1 1.8 1.1.7 0 2.2-4 2-5.3-.1-.5.3-.6.8-.3 1.2.8 2.4-1.1 1.6-2.4-.9-1.5-3.5.8-3.5 3.1 0 1-.4 2-.9 2.4-.6.3-.8-.9-.6-2.7.2-1.8.1-2.7-.2-2.1-.2.7-.9 1.3-1.5 1.3s-.6-.6.2-1.5c.6-.8 1.7-1.3 2.3-1.2.7.1 1.1-.4 1-1.1-.2-.6.2-1.2.8-1.2.5 0 .7-.4.4-1-.3-.5.2-2.1 1.1-3.6 1.4-2 1.5-2.7.5-3.4-1.1-.6-1.1-.9 0-1.4.8-.3.4-.4-.8-.2-1.3.2-2.1-.1-2-.8.1-.6-.4-1-1.1-.8-.8.1-1.1-.2-.7-.9.5-.8 1-.8 1.8 0 1.4 1.4 5 1.5 4.2.1-.3-.5-.1-1.9.5-3 .9-1.6.8-2.2-.5-2.6-.8-.3-1.2-1-.9-1.5.3-.5-.2-.9-1-.9-.9 0-1.6.5-1.6 1.1 0 .5-.4.7-1 .4-.5-.3-1-.1-1 .6 0 .6-.9 0-2-1.3-1.5-2-2.6-2.4-4.7-2-1.5.2-3.4.9-4.1 1.5-.7.5-1.5.7-1.8.4-.9-.9-4.5 3.3-3.8 4.4.4.6.9.7 1.3.3.3-.5 2.4-1.5 4.5-2.3 3.5-1.2 4.1-1.2 5.1.3.7.8 1.6 1.2 2 .8.4-.4 0 .5-.9 1.9s-1.3 3-.9 3.4c.5.5.1.4-.8-.3-.9-.6-1.9-.9-2.2-.5-1.1 1.1-.8 7.3.4 7.3.5 0 .8.4.5.9-.3.5-1.4.7-2.5.4-2-.5-4.1 2.9-2.2 3.5 1.5.5 1.4 2.3-.1 1.9-.7-.1-1.2.3-1.1 1 .2.6-.6 1.5-1.7 1.8-1.1.4-2 1.5-2 2.6 0 1-.3 1.9-.7 1.9-.5 0-1.7 1.3-2.8 2.9-1 1.6-2.2 2.8-2.6 2.5-.4-.2-1.1.1-1.5.7-.4.7-.3.9.4.5.6-.3 1.3-.2 1.7.4.3.5-.2 1-1.2 1.1-1 0-1.3.3-.6.6 1 .3.9.9-.3 2-1.3 1.4-1.7 1.4-2.5.2-.5-.8-.7-1.6-.6-1.9.2-.3.9-2 1.6-3.8 1-2.4 1.8-3.2 3-2.7.9.3.5-.3-.8-1.3-2-1.6-2.1-1.9-.4-1.7 1 0 2.5.5 3.2 1 1.1.6 1.2.5.5-.6-1.3-2.1-1.1-3.3.8-4.7 1-.7 1.8-2 1.8-2.8 0-1.3 1.2-1.8 3.2-1.5.4 0 .5-.6.2-1.4-1-2.4-3-1.7-6 2.1-1.6 1.9-3.4 4.1-3.9 4.7-3.5 4.1-6.3 9.6-5.4 10.6.5.6.6.9.2.6-.9-.7-4.3 4.6-3.7 5.7.3.4 0 .8-.7.8-.8 0-.8.4.1 1.5 1.1 1.3 1 1.4-.5.9-1.3-.5-1.6-.4-1.1.5.4.6.2 1.8-.4 2.6-.6.8-.9 2.3-.5 3.4.3 1.1.1 2.3-.6 2.7-.7.4-.9.3-.5-.4.3-.6.1-1.4-.5-1.8-.8-.5-1 .3-.7 2.5.2 1.7.2 2.9 0 2.6-.3-.3-1.1 0-1.8.6-.8.7-1.4.7-1.9-.1-.3-.5-.2-1 .3-1 .9 0 1-.3 1.4-5.4.3-3.4-1.7-4.7-2.5-1.6-.3 1.1-.1 1.7.4 1.4.5-.3.1.9-1 2.7-1.1 1.7-1.7 3.7-1.5 4.4.3.7.1 1.6-.5 2-.6.3-1.1 1.1-1.1 1.7 0 .7.4.7 1.3-.1.8-.6 1.7-.8 2-.4.4.3.7 0 .7-.8s1-1.5 2.1-1.6l2.2-.2-2.2 2c-1.2 1.1-2.6 1.7-3.1 1.4-.6-.3-1-.1-1 .4 0 .6.8 1.1 1.8 1.1 1.4 0 1.5.2.2 1-.9.5-1.9.5-2.6-.1-.8-.7-1.4-.6-1.9.1-.3.5-1.1 1-1.7 1-.6 0-.5-.7.3-1.7 1.2-1.5 1.2-1.6-.4-1-1.3.5-1.7.3-1.4-.5.2-.7 1-1.2 1.6-1.1.6.2 1.1-.2 1.1-.7 0-1.5-2.7-1.2-3.3.4-.7 1.7.2 5.6 1.3 5.6.4 0 .7 1.4.8 3 0 1.7-.3 2.8-.8 2.5-.5-.3-1.1-.1-1.4.4-.3.5.1 1.2 1 1.5.9.4 1.2 1.1.7 1.8-.4.7-.8 2.9-.9 4.8-.3 5-.3 5-1.5 5-.5 0-.8-.4-.4-.9.3-.5.1-1.2-.4-1.6-.6-.3-.7-1.3-.4-2.2.5-1.3.2-1.5-1.1-1-1.2.5-1.5.3-.9-.6 1.1-1.7 1.3-3.7.4-3.7-.4 0-1.3 1.2-2 2.6-.9 2-.9 3 0 4 .7.9.8 1.4.1 1.4-3.1 0-1.9-5.6 2-9.4 1.4-1.3 1.7-2.1.8-2.6-.6-.4-1.1-1.3-1-2.1.5-3.2-.1-6-1-5.4-.5.3-1 .1-1-.4 0-.6.4-1.1.9-1.1.6 0 .9-.9.8-1.9 0-1.1-.6-1.7-1.4-1.4-.7.3-1 .9-.7 1.4.3.5 0 .9-.5.9-1.5 0-1.4-1.1.4-3 1.3-1.4 1.2-1.9-.1-4.5-.9-1.7-1.6-4.9-1.7-7.1-.1-2.3-.5-4-.9-3.7-.5.2-.9-1.1-1-2.9-.1-1.8-.2-4.2-.3-5.3-.1-1.1-.3-2.8-.4-3.7 0-.9-.8-2.4-1.7-3.2-.8-.9-1.1-1.6-.6-1.6.5 0 .9-.7.9-1.5s-.5-1.1-1-.8c-.6.4-.8-.6-.4-2.5s.2-3.2-.3-3.2c-.6 0-1-.6-1-1.4 0-.8-.4-1.8-1-2.1-.7-.4-.7.3 0 1.9.7 1.9.6 2.6-.3 2.6-.7 0-1.3-1.5-1.4-3.5-.3-2.8 0-3.4 1.5-3 .9.3.6 0-.8-.7-3.3-1.7-3-5.9.3-5 1.2.3 2 .2 1.7-.1-1.1-1.2-6.1-1.6-5.4-.5.4.7.2.8-.5.4-.9-.6-.9-1.1 0-2.2.6-.8 1-1.4.8-1.5-.2-.1-1.6-.2-3.1-.3-1.8-.2-2.5.1-2.1 1.1.3.7.9 1.3 1.3 1.3s.7.8.6 1.7c-.1 1.3.5 1.7 1.9 1.5 1.6-.2 1.7-.1.6.7-1.1.7-1.2 1.7-.4 4.3.5 1.8 1.5 3.2 2.2 3 .8-.2 1 .4.7 1.6-.4 1.2 0 2.5 1.1 3.3 1.4 1.2 1.6 1.2.8 0-.6-1-.4-1.2.4-.6.9.5 1 1 .2 1.8-.6.6-1.1 1.6-1.1 2.1 0 .6.5.4 1-.4.8-1.3 1-1.2 1 .2 0 1-.6 1.8-1.2 1.8-.7 0 .1.9 1.7 2 1.7 1.1 2.5 2 2 2-.6 0-1.6-.5-2.3-1.2-.7-.7-1.2-.8-1.2-.2 0 .6.3 1.4.7 1.8.4.4.8 2.1.9 3.7.1 1.6 1 4 2 5.2 1.2 1.4 1.3 1.7.3.9-2-1.5-2.7-.8-2.1 2.3.2 1.4.9 2.2 1.5 1.8.5-.3.7-.1.3.5-.3.6-.2 1.3.3 1.6.5.4.8 1.4.6 2.4-.1.9.2 2.5.7 3.4.5 1.2.5 1.8-.2 1.8-.5 0-1-.5-1-1.1 0-.5-.5-.7-1.1-.3-.8.4-.9-.1-.4-1.7.5-1.9.4-2.1-.4-.9-1.6 2.2-1.4 2.8 1.7 4.4 1.5.9 2 1.5 1.2 1.6-1.3 0-1.3.2 0 1 1.2.8 1.2 1.1-.3 2.8-.9 1-1.4 2.2-1 2.7.5.4.3.5-.4.1s-1-1.3-.6-2.1c.3-.8 0-1.5-.7-1.5-.6 0-.8-.4-.5-1 .3-.5-.1-2-.8-3.2-1.7-2.7-4.2-9.9-3.9-11.2.2-.5-.5-.6-1.4-.2-1.3.5-1.5.4-.5-.7.8-1.1.8-2.1-.2-4.1-.8-1.4-1.8-2.2-2.3-1.8-.4.4-.2-.1.5-1.1.9-1.1 1-1.7.2-1.7-.6 0-1.1-1.2-1.1-2.6 0-1.4-.4-2.3-1-1.9-.6.4-1-.7-1-2.5 0-1.7-.4-2.9-.9-2.6-.5.3-1.2-.1-1.5-1-.3-.8-1-1.3-1.5-1-1.2.8-.8 3.6.8 4.5 1.5 1 1.4 1.9-.5 4.6-1.6 2.2-1.9 3.9-.5 3.1.4-.3 1.7.1 2.7.9 1.8 1.4 1.8 1.5 0 .9-1.6-.6-1.7-.4-1.1 1.7 1.5 4.8 3.6 8 4.8 7.3.7-.4.9-.4.5.1-.4.4-.1 2 .7 3.5.8 1.5 1.2 3 .9 3.3-.6.6 2 4.9 2.7 4.4.2-.1.1.2-.4.8-.5.6-1.1.4-1.7-.5-.7-1.1-.9-1-.7.8 0 1.2.2 2.2.3 2.2.2 0 1.3-.4 2.6-.9 2.2-.8 2.3-.6 2.3 3 0 2.6-.4 3.8-1.2 3.5-.7-.3-1 .1-.6.9.3.8.9 1.3 1.3 1 1.2-.8 1.8 1.8.9 4-.7 1.8-.8 1.8-.8.2-.1-1.1-.6-1.5-1.3-1.1-.6.4-.8.3-.4-.4.3-.6-.1-1.8-1.1-2.7-.9-1-2.4-3.1-3.4-4.9-1.1-1.9-2.3-3-3.4-2.8-1.4.3-1.5.1-.4-1.1.8-.8 1.9-1.2 2.4-.9.6.3.7.2.3-.3-.4-.4 0-1.3.9-2 1.3-.9 1.3-1.4.3-2-.9-.5-1.1-.4-.6.3.4.7.1 1.2-.8 1.2-.8 0-1.6.5-1.8 1.1-.2.5-1 1.1-1.8 1.2-.8.2-2.2.7-3 1.1-.8.5-.5-.2.7-1.5 1.7-1.9 2-2.8 1.2-3.6-.6-.6-1.7-.9-2.4-.7-1.4.6-3.8-2.1-4-4.5-.1-1 .4-1.8 1-1.8s1.2.6 1.2 1.4c0 .7-.5 1.3-1 1.3s-.4.7.3 1.5c2.2 2.7 3.6 1.2 1.9-2-.3-.6-.4-2-.3-3.3.1-1.2-.1-2-.4-1.7-.3.3-1.2-.9-1.9-2.6-.7-1.7-1.7-2.8-2.3-2.4-.8.5-.6 1.1.4 1.8 1.3 1 1 1.2-1.8 1.3h-3.5l3.2-2.9c1.9-1.7 2.5-2.7 1.4-2.3-1 .3-1.5.2-1.2-.3.3-.5-.4-1.2-1.5-1.6-1.1-.4-1.8-1.1-1.4-1.6.4-.6 1-.6 1.8 0 .9.8 1.3.7 1.3-.4 0-.8-.4-1.2-.9-.9-.4.3-.8-.6-.8-2s.5-2.8 1-3.1c.6-.4.4-1.2-.5-2.1-1.6-1.7-2.1-4.9-.6-4 .5.4.7-.4.3-1.6-.4-1.5-.2-1.9.7-1.3.7.4 1.1 2 .9 3.5-.4 2.3-.1 2.7 1.4 2.5 1-.2 1.6 0 1.3.5-.3.5.4 2.8 1.6 5.1 1.6 3.2 2.3 3.9 3 2.8.5-.8.4-1.5-.1-1.7-.6-.2-1-1.9-1-3.8s-.4-3.4-1-3.4c-.5 0-1-.5-1-1.1 0-.8.5-.8 1.5.1 1.2 1 1.6.9 2.1-.4.3-.9.2-2.2-.3-2.9-.5-.6-.8-1.8-.7-2.5.1-.6.2-1.8.3-2.6.1-1 .9-1.3 2.4-1 1.6.2 2.4-.1 2.4-1.1 0-.8-.4-1.2-.9-.9-.4.3-.8-.2-.8-1.1 0-1-.5-1.3-1.2-.9-.8.5-.9.2-.5-.9.3-.9.1-1.9-.5-2.3-.7-.4-.6-.9.3-1.5 1.2-.7 1.2-.9 0-.9-.7 0-1.1-.6-.7-1.5.3-.8.1-1.5-.4-1.5s-.7-.7-.4-1.5c.4-.8.1-1.5-.6-1.5-.6 0-.8-.5-.5-1 1-1.6-1.9-1.2-4.1.6-1.8 1.4-1.8 1.4.6.3 2.2-1.1 2.4-1.1 1.2.4-1 1.1-1.1 2.1-.3 3.5.6 1.1.8 2.2.5 2.5-.3.3-.1 1.4.5 2.4.8 1.5 1 1.2.6-1.5-.2-1.8 0-3 .6-2.7.5.4.9 1.6.9 2.8 0 1.3.7 3.3 1.6 4.5 2.1 3 1.1 3.9-1.4 1.4-1.3-1.3-2.5-1.6-4-1.1-1.2.5-2.2.4-2.2-.1s.8-1.1 1.8-1.3c1.3-.4 1.2-.5-.5-.6-1.6-.1-2.1-.6-1.8-2.1.2-1.2 0-1.8-.6-1.5-.5.4-.6 1.1-.3 1.7.4.7.2.8-.5.4-.6-.4-.9-1.2-.6-1.7 1.4-2.1-.6-4.9-3.6-4.9-1.6 0-2.9-.5-2.9-1.1 0-.5.4-.7 1-.4.6.3.7-.1.4-.9-.3-.9-.1-1.6.5-1.6s1.1-.4 1.1-.9c0-.6-1-.8-2.2-.6-2.2.4-2.2.3-.5-1 1.8-1.3 1.8-1.4-.2-3.4-1.2-1.2-2.1-2-2.2-1.9zm6.9 15.5c.1 1.5.9 3.1 1.8 3.6 1.1.7 1.2 1.2.4 2.2-1.7 2 2.5 4.2 4.6 2.4 1.1-.9 1.7-.9 2.5-.1.5.7.6 1 .3.7-.9-.6-3.3 2.6-3.3 4.5-.1 1 .5.7 1.8-.9 1.7-2.2 1.8-2.2 1.6-.2-.1 1.1-.4 2.4-.8 2.7-.4.4.1 1.3 1.1 2.1.9.8 1.1 1.2.4.8-.7-.4-2-.1-2.9.7-1.4 1.1-1.6 1.1-1.2-.1.3-.8-1.2-3.1-3.2-5.2s-3.4-4-3.1-4.3c.3-.4-.3-1.3-1.4-2.1-1-.8-1.6-1.5-1.2-1.5.4 0 .3-1.3-.2-3-.7-2.3-.5-3.2.8-4 .9-.5 1.7-1 1.7-1s.2 1.2.3 2.7zm96.2.8c1.4 1.8 1.3 1.9-.1.8-.9-.7-1.9-1-2.2-.6-.4.3-.7.2-.7-.4 0-.9 1.2-2.6 1.4-2.1.1.2.8 1.2 1.6 2.3zm-102 4.9c0 .2-.7.9-1.5 1.6-1.3 1.1-1.4 1-.9-.4.5-1.4 2.4-2.3 2.4-1.2zm93.7 1.3c-1.2.3-1.6 1-1.2 2.1.5 1.3.3 1.4-.6.5-1.4-1.4-.3-3.3 1.9-3.2 1.5.1 1.4.2-.1.6zm7.3 1.8c0 1.2-1.9 1.2-2.3 0-.4-.9-.1-1.2.9-.8.7.3 1.4.7 1.4.8zm-5.7 3.1c.2 1.6-.3 3.5-1 4.2-.7.8-1.1 1.8-.8 2.3.4.5.3.9-.2.9-.4 0-1.9 2.5-3.3 5.5s-2.8 5.5-3.2 5.5c-.5 0-.8.5-.8 1.1 0 .6-.9 2.2-2 3.6s-1.7 3-1.3 3.6c.3.6.1.7-.5.3-.6-.3-1.6.3-2.2 1.4-.6 1.2-.7 2-.1 2 .5 0-.6 1.6-2.5 3.6s-3.4 4.3-3.4 5c0 .8-.9 2.2-1.9 3.1-1.1.9-1.8 2-1.5 2.5.3.4 0 .8-.5.8-.6 0-1 .5-.9 1.1.2.6-.3 1.4-1 1.6-.9.4-1.1-.4-.6-2.9.3-1.8.7-3.9.8-4.6.1-.7.7-1.7 1.3-2.3.6-.6.9-1.8.6-2.7-.5-1.1-.3-1.3.7-.7.9.6 1.1.4.6-.4-.5-.7 0-1.8 1-2.6 1.1-.8 1.5-1.5 1.1-1.5-.5 0-.1-.7.8-1.6.9-.9 1.4-2.3 1.1-3.1-.3-.8-.2-1.2.2-.9 1.1.6 4.7-5.5 4.4-7.2-.2-.8.6-1.6 1.7-1.9 1.2-.3 1.9-.9 1.6-1.3-.3-.5 0-1.2.5-1.5.6-.4 1.5-1.8 2.1-3.2.5-1.3 1.3-2.2 1.8-1.9.5.3 1.1-.3 1.4-1.4.3-1.1.1-2.3-.4-2.6-.5-.3-.9-1-.9-1.7 0-.6.7-.2 1.4.9 1.4 1.8 1.6 1.7 3.3-2.3 2-4.7 2.3-4.7 2.6-.7zm-80.6 11.6c-.3.8-.6.5-.6-.6-.1-1.1.2-1.7.5-1.3.3.3.4 1.2.1 1.9zm21 6.4c-.3.3-.2 1.7.3 3s.7 2.4.4 2.4c-.2 0-.8-1-1.3-2.3-.8-2.2-.6-3.7.6-3.7.4 0 .4.3 0 .6zm-37.4 4.9c-.7 2-1.7 1.9-3.4-.2-.8-1-.9-1.4-.2-1 .6.4 1.4.3 1.8-.3.9-1.5 2.5-.2 1.8 1.5zm71.4.1c-.3.4.4 1.5 1.6 2.5 2 1.6 2 1.8.4 1.9-1 0-1.5-.4-1.2-1 .3-.5 0-.7-.9-.4-1 .4-1.3 0-1.1-1.3.5-2.4.4-2.3 1.2-2.3.3 0 .4.3 0 .6zM132.6 84c0 1.1-.4 2-.8 2-1 0-1.1-2.4-.1-3.3.9-.9.9-1 .9 1.3zm64.4 1.9c0 .5-.7 1.2-1.6 1.5-.8.3-1.3 1-1 1.5.3.5-.1 1.2-.9 1.5-1.2.4-1.3.2-.6-1.3.6-1 .7-2.2.3-2.6-.4-.5-.1-.5.6-.1.6.4 1.2.2 1.2-.3 0-.6.5-1.1 1-1.1.6 0 1 .4 1 .9zm-75 2.3c0 .6-.9.8-2.1.5-1.7-.5-1.8-.3-.8.9.6.8.9 1.7.5 2.1-.3.3-.6.1-.6-.6s-.4-1-.9-.7c-1.1.7-.9-1.3.2-3.1.9-1.4 3.7-.6 3.7.9zm57.4-1.6c1.7.7 2.2 3.4.6 3.4-.5 0-.9-.4-.7-.9.1-.5-.2-.8-.8-.8-.5.1-1 2.2-.9 4.7 0 2.4-.1 3.9-.4 3.2-.6-1.9-1.8-1.4-1.9.8-.1 1.1.2 2 .8 2 .5 0 0 .9-1.1 2-1.3 1.3-1.8 3-1.7 5.4.2 2.4 0 3.3-1 2.9-.9-.3-1-1-.3-2.2.6-1.3.5-1.8-.5-1.8-.7 0-1.1.7-.7 1.5.4 1.1.2 1.3-.9.7-1.1-.7-1.2-.6-.3.6.6.8 1 2.2.9 3.2-.2.9.1 1.5.6 1.1.5-.3.6-1.1.3-1.7-.4-.8-.2-.7.7.1 1.2 1.1 1.2 1.4-.1 2.2-.8.6-2.2.7-3 .4-1.2-.4-1.3-.3-.2.7.6.7 1.2 1.7 1.2 2.3 0 .5-.3.7-.6.3-1-1-5.6 6.5-5.6 9 0 1.2-.7 2.4-1.5 2.7-.8.3-1.1 1.1-.7 1.8.4.8.3 1-.2.5s-.9-1.2-.9-1.5c0-.4-.4-1.4-1-2.2-.8-1.3-.7-1.3.8-.1 1.9 1.5 2.3.1.5-1.7-.9-.9-.9-1.2.1-1.2.7 0 .9-.5.6-1-.4-.6-.1-1.7.5-2.5.7-.8 1-2.1.7-2.9-.3-.8 0-1.7.7-1.9.8-.3 1.4-1.6 1.4-3 0-2-.5-2.3-2.4-1.9-1.3.2-2.4 0-2.4-.6 0-1.5 1.7-2.4 2.4-1.4.4.7 3 .8 5.5.3.2-.1-.2-.7-.8-1.5-.9-1.1-.9-1.6.2-2.3 1.8-1 6.8-10.4 6.1-11.5-.3-.4-.1-.8.3-.8.5 0 1.5-1.6 2.2-3.5 1.4-3.8 1.3-3.8 3.5-2.9zm-66.6 5.6c-.3 1.4.5 1.4 3.6.2 1.4-.5 1.7-.4 1.2.4-.4.7-.3 1.2.2 1.2 1.5 0 3.1 4.6 2.1 6.1-.7 1.2-.9 1.2-1-.1-.1-.8-.1-1.9.1-2.5.2-1-2.8-3.5-4.3-3.5-.4 0-.5.6-.1 1.2.4.7-.2.5-1.4-.6-1.2-1-1.9-2.3-1.6-2.7.8-1.3 1.4-1.1 1.2.3zm80.2.2c0 .3-.4.8-1 1.1-.5.3-1 .1-1-.4 0-.6.5-1.1 1-1.1.6 0 1 .2 1 .4zm-42 8c0 .2-.7.6-1.5 1-.8.3-1.5.1-1.5-.4 0-.6.7-1 1.5-1s1.5.2 1.5.4zm36.8 2.6c-.7 1.1-1.6 2-1.9 2-.4 0-.5 1-.1 2.2.5 1.9.4 2-1 .8-1.6-1.5-1.3-4 .4-4 .5 0 .6-.5.2-1.2-.4-.7-.3-.8.4-.4s1.2.2 1.2-.3c0-.6.5-1.1 1-1.1.6 0 .5.8-.2 2zm-40.5 2c-.3 1.1 0 2 .6 2s1 .3 1 .7c-.4 2.3.2 4.3 1.1 3.8.6-.4.7-1.2.4-1.8-.4-.7-.3-.8.1-.4 1.2 1 1.5 3.8.4 3.1-.5-.3-1 .5-1 1.8-.1 2-.2 2.1-.6.3-.3-1.1-1-2.5-1.5-3-.8-.7-.9-.4-.5.8.4 1.1.3 1.6-.4 1.2-.5-.4-.7-1.5-.4-2.6.4-1.1.2-1.9-.4-1.9-1.2 0-1-2.7.2-4.8 1.2-1.8 1.6-1.5 1 .8zm-15.6.6c-.3.3-1.2.4-1.9.1-.8-.3-.5-.6.6-.6 1.1-.1 1.7.2 1.3.5zm57.8 4.4c-1 1.1-1.4 2.4-1 3.2.6.9.5 1-.4.2-1.3-1.2.8-6.6 2.2-5.7.5.3.1 1.3-.8 2.3zm-6-.9c.3.3-.6 1.5-1.8 2.7-1.7 1.7-2.4 1.8-2.4.8 0-.8.3-1.5.6-1.4 1.8.2 2.2-.4 1.2-1.6-1-1.1-.9-1.4.3-1.2.9.1 1.8.4 2.1.7zm-5.3 5.3c.4.6.8 1.5.8 2.1-.1.5-.5.2-1.1-.8-.6-.9-1.4-1.5-1.9-1.2-.5.3-1.1.2-1.4-.3-.8-1.3 2.8-1.1 3.6.2zm13.8-1c0 .3-.4.8-1 1.1-.5.3-1 .1-1-.4 0-.6.5-1.1 1-1.1.6 0 1 .2 1 .4zm-39 2.7c0 .6-.4.7-1 .4-.5-.3-1-1.1-1-1.6 0-.6.5-.7 1-.4.6.3 1 1.1 1 1.6zm-6.3-.4c-.4.3.2 1.3 1.4 2.1 1.1.7 1.9 1.8 1.7 2.4-.4 1-1.8 1.2-1.8.3.1-.3-.6-1.3-1.5-2.1-1.4-1.4-1.3-3.4.2-3.4.4 0 .3.3 0 .7zm41.4.6c-.6.8-.7 1.8-.3 2.2.4.5.1.5-.6.1-1-.6-1-1.1-.1-2.2.6-.8 1.4-1.4 1.6-1.4.3 0 0 .6-.6 1.3zm-3.1.1c0 .2-.7.7-1.6 1-.8.3-1.2.2-.9-.4.6-1 2.5-1.4 2.5-.6zm-50.6 1.8c-.3.4-1.1.5-1.9.1-2.1-.7-1.9-1.2.4-1 1.1 0 1.8.5 1.5.9zm42.5 1.4c-.6.7-1.5 1.1-2.1.8-.5-.3-.4-1.2.3-2 .6-.7 1.5-1.1 2.1-.8.5.3.4 1.2-.3 2zm-39.1-.9c-.9.2-1.6 1-1.4 1.6.1.7.1.9-.1.4-.3-.4-1-.4-1.6 0-.7.4-.6-.1.2-1 .7-.9 2.1-1.6 3-1.6 1.4.1 1.4.2-.1.6zm6.2 1.9c0 .8-1.9 1.3-2.4.6-.3-.5.1-.9.9-.9s1.5.2 1.5.3zm28.7 1c-.3.3-1.2.4-1.9.1-.8-.3-.5-.6.6-.6 1.1-.1 1.7.2 1.3.5zm-5.7 1.8c0 .2-.8 1-1.7 1.7-1.6 1.3-1.7 1.2-.4-.4 1.3-1.6 2.1-2.1 2.1-1.3zm4.9 1.6c-.6.5-1.8.6-2.6.3-1.9-.8-1.6-1.1 1.3-1.1 1.7 0 2.2.3 1.3.8zm-2.3 2.1c.7 1.2-1.5 3.1-2.7 2.3-.4-.2-.9.2-1.2.8-.3 1-.8 1-1.8-.1-.8-.8-.9-1.1-.2-.7.7.4 1.8-.2 2.5-1.4 1.4-2.3 2.4-2.5 3.4-.9zm-24.6.3c0 .2-.8 1-1.7 1.7-1.6 1.3-1.7 1.2-.4-.4 1.3-1.6 2.1-2.1 2.1-1.3zm20 5c0 .2-.7.7-1.6 1-.8.3-1.2.2-.9-.4.6-1 2.5-1.4 2.5-.6zm-1 3.6c0 .5-.4 1-1 1-.5 0-1-.5-1-1 0-.6.5-1 1-1 .6 0 1 .4 1 1zm123.8 37.4c1.2.3 1.2.4-.3.3-1.1-.1-2-.9-2.1-1.7 0-.8.1-1 .3-.3.2.6 1.2 1.4 2.1 1.7zm10.8 16.8c.4.6.3.8-.4.4-.6-.3-1.3-.2-1.7.4-.3.5-1.1 1-1.8 1-.6 0-.2-.7.9-1.5 2.3-1.8 2.1-1.7 3-.3zM68 266.9c0 .5-.8 1.5-1.7 2.2-1.6 1.2-1.7 1.2-.6-.2.7-.9 1-1.9.6-2.2-.3-.4-.1-.7.5-.7.7 0 1.2.4 1.2.9z"/><path d="M117.8 56.7c.6.2 1 .8.8 1.2-.3.4 0 1.3.6 2.1.8 1.2.9 1.2.4-.3-.3-1 0-1.7.7-1.7.8 0 .6-.4-.3-1-.8-.5-1.9-.9-2.5-.9-.5 0-.4.3.3.6zM172.2 100.6c-.7.8-.8 1.4-.3 1.4 1 0 2.5-1.9 2-2.5-.2-.1-1 .3-1.7 1.1zM228.7 32.4c-.8.8-1.7 1.2-2.1.9-.3-.4-.6-.1-.6.6s-.4 1-.9.6c-.5-.3-2.1.5-3.5 1.7-1.4 1.3-3.6 3.2-5 4.3-2.9 2.3-3.3 3.5-1.1 3.5.8 0 1.5-.8 1.5-1.7 0-.9.3-1.3.6-1 .8.7 6.5-3 7.7-5 .4-.7 1.3-1.3 1.8-1.3 1.3 0 4.3-2.9 3.6-3.6-.2-.3-1.1.2-2 1zM232.3 33.2c-1.2 2-1.2 3.7-.1 4.5.7.4.9-.2.5-1.8-.6-2.3-.5-2.3.8-.5 1.3 1.7 1.5 1.8 1.5.3 0-.9-.5-1.7-1.1-1.7-.5 0-.7-.5-.4-1 .3-.6.4-1 .1-1-.3 0-.8.6-1.3 1.2zM114.4 36.8c.4.3 1.4.7 2.2.8.9.1 1.3 0 1-.4-.4-.3-1.4-.7-2.2-.8-.9-.1-1.3 0-1 .4zM127.8 36.7c.6.2 1 .9.6 1.4-.3.5 0 .8.7.7.6-.2 1.4.3 1.6.9.3.7 0 1.3-.6 1.3-1.7 0-1.3 2.7.5 3.4 2.5 1 3.4.7 2.8-.9-.4-.8-1-1.2-1.5-.9-.5.3-.9.1-.9-.5 0-.5.5-1.1 1.2-1.3 1.3-.5-3-4.8-4.6-4.7-.6 0-.5.3.2.6zM98.8 37.6c-.4.4-2.7.8-5.2.9-4.2.1-6.8 1.7-7.3 4.3-.5 1.9 2.1 1.4 3.5-.8 1.6-2.6 2.8-2.5 3.5.1.4 1.4 1 1.8 1.8 1.3.9-.5 1-.2.6.9-.3 1-.3 1.7.2 1.7 1.5 0 5.1 3.7 4.3 4.5-.4.5-.2.5.5.1.6-.3 1.6.2 2.2 1.1.5 1 1.3 1.5 1.6 1.1.4-.4-.4-1.8-1.9-3.1-1.4-1.3-2.2-2.8-1.8-3.2.4-.5.2-.6-.4-.2-.5.3-1.8-.5-2.8-1.8-1-1.4-2.2-2.2-2.7-1.9-.5.3-.9.1-.9-.4 0-1.2 3.6-2.2 4.5-1.3.4.3 1.1.6 1.6.6s2 1.2 3.3 2.8c1.9 2.2 2.5 2.4 3 1.2.3-.9-.3-2-1.4-2.7-1.1-.7-2-1.8-2-2.5s-.6-1.3-1.4-1.3c-.8 0-1.6-.5-1.8-1.1-.2-.5-.7-.7-1-.3zM232.6 38.8c-.7 1.1-.2 5.5.9 7.1.5.9.4 1.2-.3.7-.6-.3-1.3-.2-1.7.4-.3.5 0 1 .7 1 .9 0 .9.3-.2 1-1.2.8-1.2 1-.1 1 1.6 0 .7 1.3-1.2 1.6-3.2.5-4.3 1.1-6.1 3-1.9 2-2 2-3.8.2-1.9-1.9-4.4-2.5-3.3-.8.3.5 1.3 1 2.1 1s1.4.4 1.4 1c0 .5-.5 1-1.1 1-.6 0-1.8.8-2.7 1.7-1.6 1.6-1.6 1.6.1 1 1.6-.6 2.1.2 1.8 3-.1.7.3 1.3.8 1.3s.8-1.1.5-2.4c-.3-1.9.3-2.9 2.6-4.3 1.6-.9 3-2.1 3-2.6 0-.4.4-.6.9-.3.5.4 1.2 0 1.4-.6.3-.8.6-.6.6.5.1 1 .6 1.5 1.1 1.2.6-.3 1-.1 1 .4 0 .6-.7 1.1-1.6 1.1-1 0-1.4.5-1 1.6.3.8.2 1.3-.3 1-1.2-.8-3.5 4-2.5 5.6.5.9.2.9-1.1-.2-1.7-1.4-1.8-1.4-.8.4.8 1.4.5 2.4-1.4 4.4-1.3 1.4-2.1 2.7-1.8 3 .2.3-.7 1.6-2.1 2.9-1.4 1.2-2 2.3-1.3 2.3.6 0 0 1-1.5 2.1-1.5 1.2-2.5 2.3-2.2 2.6.3.3-1.3 2.3-3.4 4.6-2.2 2.2-3.6 4.5-3.3 5 .4.6-.1.8-1.1.4-1.4-.6-1.7-.3-1.2.8.3.9.2 1.4-.3 1.1-.5-.3-1.4.1-2.1.9-.7.8-.9 1.5-.4 1.6.5 0-.1.4-1.3.9-1.3.5-2.3 1.6-2.3 2.4 0 .7-.7 1.6-1.5 2-.8.3-1.5.1-1.5-.4 0-.6.5-1 1-1 .6 0 1-.5 1-1.2 0-.6.7-2 1.7-3 1.4-1.6 1.4-1.8.1-1.8-1.3 0-2.8 1.8-3.2 4-.1.3-.4 1-.8 1.6-.8 1.2-.4 5 .6 4.7.3-.2 1.7-1 3.1-1.9 2.1-1.4 2.3-1.9 1.3-3.2-1-1.2-1-1.4-.1-.9.7.5 2.4 0 3.9-1 2.7-1.7 2.7-1.7 1.3.4-.7 1.2-1.7 1.9-2.1 1.7-.4-.3-.8.4-.8 1.5 0 3 1.9 3.5 2.9.8.5-1.3 1.7-2.7 2.6-3.1 1.5-.5 1.5-.7.1-2.2-1.8-1.7-2.2-3.9-.6-2.9.6.3 1-.1 1-.9 0-1 .6-1.3 1.5-1 1.4.6 1.3.8-.2 1.9-1 .8-1.5 1.6-1.1 2 .3.3 1.1 0 1.7-.7.7-.7 2.5-2.9 4.2-4.8 1.6-1.9 2.7-4 2.4-4.8-.2-.7 0-1 .5-.7.6.3 1 .1 1-.5s.4-.9.9-.6c.5.3 1.2-.1 1.5-1 .3-.8.2-1.3-.2-1-.4.2-1.3.2-1.9-.2-.7-.5-.3-1.1 1.3-1.9 1.3-.6 2.2-.7 1.8-.2-.3.5 0 .9.5.9 1 0 1.5-1.4 1.2-3.3-.1-.5.3-.6.8-.3 1 .7 3.2-1.6 3.5-3.9.1-.8 1.1-2.2 2.2-3.1 1.8-1.5 1.8-1.5 0-1-1.5.5-1.7.4-.7-.8.8-.9.9-1.6.2-2.1-.6-.3-1.3.6-1.7 2-.3 1.4-1 2.5-1.5 2.5-1.3 0-1.1-1.3.6-3.6.8-1.2 1.1-2.5.7-2.9-.4-.5-.1-.5.6-.1.8.5 1.2 0 1.2-1.3 0-1.1.4-2.2.9-2.6.5-.3 1.2-1.9 1.6-3.5.8-3.5 2.3-3.2 2.3.4 0 1.6-.7 2.6-2.1 3-1.2.3-1.8.8-1.4 1.2.3.4.2 1.5-.4 2.5-.8 1.5-.6 1.9.6 1.9.9 0 1.3.4 1 1-.3.5-.4 1 0 1 .6 0 2.2-3.8 2.3-5.4 0-.5.4-1.2.9-1.5.4-.3 1.4-1.6 2-2.8 1.9-3.4.4-6-3.1-5.4-.5.1-.4-.5.4-1.4.8-.9 1-2.8.7-5-.3-2-.2-3.3.3-3 .4.3.7-.3.5-1.2-.2-1-.4-2.4-.4-3.1-.1-1.4-1.7-1.6-2.5-.4zm1.9 2.2c.3.5.1 1-.4 1-.6 0-1.1-.5-1.1-1 0-.6.2-1 .4-1 .3 0 .8.4 1.1 1zM233 61.7c0 .5-.5 1.5-1 2.3-.7 1.2-.9 1-.7-.8.1-1.9 1.7-3.3 1.7-1.5zM214 88c-1.2 2.3-1.6 2.4-2.6.8-.4-.6-.3-.8.3-.5.6.4 1.3 0 1.7-.8.3-.8.8-1.5 1.1-1.5.3 0 .1.9-.5 2zM113.6 40.7c-.6 1.4-.5 1.5.5.6.7-.7 1-1.5.7-1.8-.3-.3-.9.2-1.2 1.2zM138.4 45.7c0 1.5.3 2 1 1.3 1.4-1.4 1.6-3.7.2-3.7-.7 0-1.2 1.1-1.2 2.4z"/><path d="M92.9 46.2c.7 1 1 1.8.7 1.8-.4 0-.2.9.4 2 .6 1.1 1.6 2 2.2 2 .6 0 .4-.8-.5-1.8-1-1-1.5-2.1-1.2-2.4.3-.3-.3-1.1-1.2-1.9-1.6-1.3-1.7-1.2-.4.3zM86.5 46.9l-2 .8 2 .5c1.6.5 1.7.6.3.7-1 0-1.8.6-1.8 1.2 0 .5.4.7 1 .4.5-.3.7 0 .4.8-.3.8.1 2.1.9 2.8.7.8 1.2 2 .9 2.7-.2.6.3 1.5 1.2 1.8.9.3 1.3 1 1 1.5-.6 1.1 2.6 6.9 3.9 6.9.4 0 .5.4.2 1-.4.6.1.7 1.2.4 1.6-.5 1.6-.4.2.8-1.4 1.1-1.4 1.5-.2 2.7.8.7 2.2 1 3.1.6 1.6-.6 1.6-.7-.1-1.6-.9-.6-1.5-1.4-1.2-2 .4-.5-.1-1.2-.9-1.5-.9-.3-1.3-1.1-.9-1.7.4-.6.1-.7-.7-.2-.9.5-1 .2-.5-1.4.3-1.2.3-2.1-.2-2-1.9.3-3.3-.2-3.3-1.2 0-.5.4-.8.8-.5.5.3.9-.1.9-.9s-.4-1.2-.9-.9c-.4.3-.8 0-.8-.6s-.4-.8-1-.5c-.5.3-1 .2-1-.4 0-.5.4-1.2.9-1.5 1-.7.3-4.6-.9-4.6-.4 0-.5-1.1-.2-2.5.2-1.4.3-2.5.1-2.4-.2 0-1.3.4-2.4.8zM188.5 46.9c.3.5.1 1.2-.5 1.6-.6.4-.7 1.1-.4 1.7.5.7.1.9-.9.5-1.1-.4-1.7-.1-1.7.8 0 .8-.5 1.5-1.1 1.5-2.1 0-5 4.2-3.8 5.6.7.9.6 1.4-.2 2-.8.5-.9.3-.4-.6.5-.8.3-1.1-.6-.8-.8.3-1.3 1.3-1.3 2.2.1.9-.2 1.6-.8 1.6-.5 0-.6.4-.3 1 .3.5 1.1 1 1.6 1 .6 0 .8-.4.5-.9-.3-.4.3-1.6 1.4-2.6 1.3-1.2 1.8-2.5 1.4-3.8-.4-1.3-.2-1.7.5-1.3.6.4 1.1.2 1.1-.5s.2-1 .5-.7c.6.6 7.5-6 7.5-7.2 0-.4-.7-1.1-1.6-1.4-.8-.3-1.2-.2-.9.3zM196.5 47c-.3.5-.1 1 .4 1 .6 0 1.1-.5 1.1-1 0-.6-.2-1-.4-1-.3 0-.8.4-1.1 1zM191 55c-1.1 2.2-1.7 4-1.3 4 .5 0 1.4-1.5 2.2-3.3.8-1.7 1.9-3.5 2.5-3.9.8-.5.7-.8-.1-.8-.7 0-2.2 1.8-3.3 4zM140.6 53.4c.3.8 1.3 1.7 2.2 2.1 1.3.5 1.3.2-.3-1.5-2.1-2.4-2.6-2.5-1.9-.6zM197 54c-.1.8-.2 1.8-.1 2.2 0 .5-.8.8-1.8.8-2.8 0-3.4 1.5-1.3 3.1.9.7 1.4 1 1 .5-.4-.5.2-1.6 1.4-2.5 1.2-1.1 1.8-2.4 1.5-3.6-.3-1.4-.5-1.5-.7-.5zM148.8 56.1c-1 1-1.4 1.9-1 1.9.5 0 .9 1.2 1 2.7.1 3.3.5 5.4 1.4 6.8.3.5.6 2.2.7 3.7.5 7.6.6 7.9 2.6 5.2 1.4-2 .8-6.7-.9-5.7-.6.4-.5-.1.3-1 1.2-1.5 1.1-1.7-.2-1.7-1.2 0-1.4-.7-1.1-2.8.3-1.8.1-2.2-.4-1.4-.7 1.1-1 .9-1.5-.7-.6-2.3.8-3.9 1.7-1.9.2.7.4.3.2-.9-.1-1.2-.5-2.5-.8-2.9-.4-.3-.4-1.2-.1-2 .7-1.8.2-1.7-1.9.7zM130.8 59.1c1.4 1.5 1.6 3.3.2 2.4-1.8-1.1-1.1 1.4 1 3.5 1.1 1.1 2 2.3 2 2.7-.1.5.8.9 2 1.1 2.2.4 2.7-1.2.8-2.4-.7-.4-.8-.3-.4.4s.1 1.2-.8 1.2c-1 0-1.3-.7-1.1-2.1.3-1.4 0-1.9-.9-1.6-.8.3-1.1-.3-.8-2.3.3-2-.1-2.9-1.5-3.4-1.4-.6-1.6-.5-.5.5zM106.6 60c.6.8 1 2.3.9 3.2-.2 1.2.3 1.8 1.5 1.8 2.5 0 1.9-2.7-1.1-4.7-1.7-1.2-2.1-1.3-1.3-.3zM127.4 60.3c-.6 1.8 1.3 6.7 2.6 6.7.6 0 .5-.9-.4-2.3-.7-1.2-1.2-3-1.1-4 .4-2-.3-2.3-1.1-.4zM113.9 61.7c-1.3 1.6-1.2 1.7.4.4.9-.7 1.7-1.5 1.7-1.7 0-.8-.8-.3-2.1 1.3zM99.6 61.9c-.3.5.2 1.5 1.2 2.2 1.5 1.2 1.6 1.2.5-.2-.7-.9-1-1.9-.6-2.2.3-.4.4-.7 0-.7-.3 0-.8.4-1.1.9zM213.5 62.9c-.3.8-.1 1.9.5 2.5.7.7 1 .6 1-.3 0-.8.8-2 1.8-2.7 1.6-1.2 1.5-1.3-.5-1.1-1.2.1-2.5.8-2.8 1.6zM173.7 68c-1.7 2.8-1.5 3.5.6 3.1.5-.1.6.3.2.8-.3.6-1.2.8-1.9.5-.8-.3-1.6.4-2.1 1.8-.4 1.3-.9 2.9-1.1 3.5-.2.7-.5 1.9-.7 2.5-.1.7-.6 1.9-1 2.5-.5.7-.4 1.3.2 1.3.5 0 .4 1.2-.4 2.7-1.7 3.2-.3 5.6 1.8 3.4 1-1.1.9-1.2-.3-.6-1.3.7-1.3.6.1-1.1.8-1 1.5-2.6 1.4-3.4 0-.8.2-1.7.6-2 .3-.3.9-2 1.2-3.8.5-2.5.4-3.1-.6-2.6-.6.4 0-.5 1.5-2 1.5-1.6 2.5-3.2 2.2-3.7-.3-.5.2-1.6 1-2.5 1.5-1.5 1.4-3.4-.2-3.4-.4 0-1.6 1.3-2.5 3zM216.6 67.5c-.9 1.3-1.6 2.9-1.6 3.5 0 1.9 2.4.6 3.5-1.8.5-1.2 1.3-2.2 1.7-2.2.5 0 .8-.5.8-1 0-1.9-2.8-1-4.4 1.5zM100.8 66.7c.6.2 1.8.2 2.5 0 .6-.3.1-.5-1.3-.5-1.4 0-1.9.2-1.2.5zM103.7 68.7c-1 .9-.9 3.3.1 3.3.4 0 .8-.9.9-2 .2-2.1 0-2.4-1-1.3zM108.5 71.1c-.4.6-.5 1.2-.2 1.5.2.3.7-.2 1-1.1.7-1.7.1-2-.8-.4zM112.6 70.8c-1.5.3-1.6.6-.5 1.3 1.1.7 1.1.9-.3.9-1.9 0-2.4 1.5-.9 2.4.8.5 4.7-4.3 3.9-4.8-.2-.1-1.2 0-2.2.2zM118 71.4c0 .2.7.9 1.5 1.6 1.3 1.1 1.4 1 .9-.4-.5-1.4-2.4-2.3-2.4-1.2zM126 71.9c0 .6.4 1.3 1 1.6.6.3.7-.1.4-.9-.7-1.8-1.4-2.1-1.4-.7zM136.3 73.7c-.8 1.7-.9 3.1-.3 4.2.5.9 1 1.2 1 .7s.6-.3 1.4.3c1.2 1 1.3.5.4-3.1-.5-2.3-1-4.3-1.1-4.4-.1-.2-.8.9-1.4 2.3zm1 1.8c-.3.9-.8 1.4-1 1.1-.3-.3-.2-.9.2-1.5.9-1.6 1.5-1.3.8.4zM213.2 73c.2.8-.2 1.4-.8 1.3-.7-.1-1.1.5-1 1.5.1 1.1-.5 1.6-1.6 1.4-.9-.1-1.9.2-2.3.8-.3.6 0 .7.9.4.9-.3 1.6-.3 1.6 0 0 .8-3.2 5.9-4.1 6.6-.3.3-1.4 2-2.3 3.7-.9 1.8-2.1 3.3-2.6 3.3-.6 0-1 .6-1 1.2.1 1.3 3.2-1.9 6-6.1.8-1.3 2.5-3.5 3.7-4.9 1.2-1.4 2-2.9 1.7-3.3-.2-.5.4-1.3 1.5-1.8 1.9-1.1 2.2-3.3.7-4.8-.4-.4-.6-.1-.4.7zM99 74c0 .5.5 1 1 1 .6 0 1-.5 1-1 0-.6-.4-1-1-1-.5 0-1 .4-1 1zM120.5 76c.3.5.8 1 1.1 1 .2 0 .4-.5.4-1 0-.6-.5-1-1.1-1-.5 0-.7.4-.4 1zM153.3 77.9c-1.5 2.4-.6 6.2 1.4 5.4 1-.4 1.1-.9.4-1.6-.6-.6-1.1-1.6-1.1-2.2 0-.5.5-.3 1 .5 1.1 1.7 1.2.4.2-2.2-.7-1.7-.8-1.7-1.9.1zM123 80c.6 1.1 1.2 2 1.3 2 .2 0 .3-.9.3-2s-.6-2-1.3-2c-1.1 0-1.1.5-.3 2zM139.3 83.2c-.1 1 .3 1.8.9 1.8.6 0 .8-.3.5-.7-.4-.3-.2-1.1.3-1.8.7-.8.6-1.2-.3-1.2-.7 0-1.4.9-1.4 1.9zM124.6 84.3c.3 1 .9 1.5 1.2 1.2.3-.3 0-1.1-.7-1.8-1-.9-1.1-.8-.5.6zM154.3 84.7c-.8.3-.9 1.2-.3 2.9.5 1.3.7 2.4.4 2.4-.4 0 .1 1.1 1 2.5 1 1.6 1.2 2.5.5 2.5s-.8.7-.4 1.7.8 2.5.9 3.3c.4 1.9 2.8 2 3.4.1.3-.8 0-1.1-.6-.7-.6.4-1.6-.2-2.2-1.3-.7-1.3-.7-2.2 0-2.6.5-.3 1 .2 1.1 1.2 0 1 .3 1.3.6.6.2-.7-.5-2.5-1.6-3.9-2-2.6-2-5.1.1-3.8.5.4.4-.4-.3-1.7-.7-1.3-1.1-2.6-1-2.7.5-.7-.4-.9-1.6-.5zM139.8 86.7c.7.3 1.6.2 1.9-.1.4-.3-.2-.6-1.3-.5-1.1 0-1.4.3-.6.6zM126.6 89.7c-.6 1.4-.5 1.5.5.6.7-.7 1-1.5.7-1.8-.3-.3-.9.2-1.2 1.2zM129.3 89.5c0 .8.5 1.1 1 .8.6-.4.8 0 .4 1-.3 1-.2 1.7.3 1.7.6 0 .9.5.8 1.1-.2.6.3 1.4 1 1.6 1.4.6 1.6-1.3.2-2.2-.6-.4-.8-1-.5-1.4.2-.5-.4-1.6-1.4-2.5-1.5-1.3-1.8-1.4-1.8-.1zM141 89.9c0 .6.4 1.3 1 1.6.6.3.7-.1.4-.9-.7-1.8-1.4-2.1-1.4-.7zM105.5 95c.8.9 1.5 2.2 1.5 2.8 0 .6.4 1.3.9 1.6 1.3.8.8-1.9-.7-3.6-.6-.8-1-1.7-.7-2 .3-.2-.2-.5-1-.5-1.3 0-1.3.2 0 1.7zM129 96.4c0 .2.7.7 1.6 1 .8.3 1.2.2.9-.4-.6-1-2.5-1.4-2.5-.6zM111 101.9c0 .5.7 1.2 1.6 1.5.8.3 1.2 1.1.8 1.7-.5.8-.3.9.5.5.9-.6.8-1.3-.5-2.7-1.9-2.1-2.4-2.3-2.4-1zM116.3 106.5c0 .8.4 1.2.9.9.5-.3.6-1 .3-1.5-.9-1.3-1.2-1.1-1.2.6zM135 105.9c0 1.4 2.9 2.1 3.6.9.4-.7.3-.8-.4-.4s-1.2.2-1.2-.3c0-.6-.4-1.1-1-1.1-.5 0-1 .4-1 .9zM156 111.9c0 .6.4 1.2.8 1.5.5.3.9-.1.9-.9s-.4-1.5-.9-1.5c-.4 0-.8.4-.8.9zM299 194.9c0 .5.5 1.3 1 1.6.6.3 1 .2 1-.4 0-.5-.4-1.3-1-1.6-.5-.3-1-.2-1 .4zM263.6 282.2c.4 1.8.7 5 .8 7 0 2.5.4 3.8 1.3 3.8.7 0 1.3.5 1.3 1.1 0 .5-.4.8-.9.5-1.2-.8-.8 4.7.4 5.6 1.4 1.1 2.5 1 2.5-.3 0-.5-.5-.7-1.1-.3-.8.4-.9-.1-.3-1.7 1.1-3.6.7-7.8-1.1-9.2-.6-.4-.4-1.1.5-1.7 1.3-.8 1.2-1-.2-1-1 0-1.8-.5-1.8-1.1 0-.5.6-.7 1.3-.4.6.4.4 0-.6-.8s-1.4-1.7-.9-1.8c.6-.2.4-1-.4-1.7-1.2-1.1-1.4-.8-.8 2zM254.3 301.7c-.7.2-1.3.9-1.3 1.4 0 .6.5.7 1 .4.6-.3 1-.1 1 .4 0 .6-.4 1.1-.9 1.1-1 0-.9 1.9.2 3.7.5.8.3 1.1-.5.8-1-.4-1.4.4-1.4 2.7 0 1.8-.3 4.9-.7 6.8-.3 2.1-.1 4 .6 5 1 1.3 1 1.3-.5.2-1-.8-1.9-.9-2.2-.3-.4.5-.2 1.2.4 1.6.6.4.8 1 .5 1.5-.3.5.3.8 1.4.7 2.1-.1 3.7-4.7 1.7-4.7-.6 0-.4-.6.4-1.3 1.9-1.5 2.2-2.9 2.6-9.4.2-2.9-.2-5.5-.7-5.9-.6-.4-.6-1.1.2-2 .9-1.1.8-1.4-.2-1.4-1.1 0-1.1-.2.1-1 1.6-1 .4-1.2-1.7-.3zm-1.2 17.6c-1 .9-1.1.8-.5-.6.3-1 .9-1.5 1.2-1.2.3.3 0 1.1-.7 1.8zM265.4 303.9c.1 1.6.4 2.7.7 2.5.4-.2 1 .3 1.3 1.2.3.9.2 1.2-.5.9-1.2-.8-.8 3.3.5 5.4.6.9.5 1.2-.1.8-1.4-.9-2.3 3.9-1.1 5.1.6.6.6 1.2-.1 1.6-.5.4-.8 1.3-.4 2.1.3.8 0 1.5-.7 1.5-.9 0-.9.4.1 1.7.8.9.9 1.4.4 1.1-.6-.4-1.1.1-1.1 1-.1.9-.3 2.3-.5 3.1-.2.7.2 1.6 1 1.8.9.4 1.1-.1.7-1.8-.3-1.3-.3-1.8 0-1.2.9 2.1 2.7 1.5 2.1-.7-.3-1.1-.1-1.8.4-1.4 1.4.8 1.1-2-.3-3.5-1.1-1.1-1-1.2.2-.6 1.3.8 1.3.7 0-1s-1.3-1.8 0-1.3c1.2.4 1.5-.5 1.5-5.1 0-3.1-.4-5.9-1-6.3-.6-.5-.5-.8.3-.8.9 0 1-.6.4-1.8-.5-.9-.8-2.6-.8-3.7.1-1.9-1.1-3.4-2.5-3.5-.3 0-.6 1.3-.5 2.9zm1.7 14.4c-1 .9-1.1.8-.5-.6.3-1 .9-1.5 1.2-1.2.3.3 0 1.1-.7 1.8zM144 316.8c0 .5.6 1.4 1.3 2.1.8 1 .8 1.2 0 .7-.6-.3-1.5-.1-1.9.5-.4.7-.3.9.3.6.6-.4 1.5.5 2.1 1.8.7 1.5.8 2.5.2 2.5-.6 0-1-.5-1-1.1 0-.5-.5-.7-1.1-.3-.7.4-.7.9-.2 1.3.6.3.8 1.7.7 3.1-1.3 9.3-1.2 12.1.2 12.7 1.5.5 1 2.3-.7 2.3-.6 0-.7-.5-.4-1 .3-.6.1-1-.5-1-.7 0-1 .7-.6 1.5.3.8.1 1.5-.5 1.5s-.7.5-.4 1c.3.6.2 1-.4 1-1.1 0-.9 2.4.2 2.8.4.1 1.5-.2 2.5-.7.9-.6 1.2-1.1.5-1.1-.8 0-.5-.8.7-2 2-2 2.8-6 1.1-6-1.1 0-.8-2.6.4-3.7.4-.4.5-.3.1.4-.3.6-.2 1.4.4 1.8.6.4.9-.7.8-2.9-.3-3.6-1.2-4.6-2.1-2.4-.3.8-.6.6-.6-.5-.1-1 .6-1.7 1.7-1.7 1.3 0 1.4-.2.3-.9-.7-.5-.9-1.1-.4-1.4.8-.5.9-3.8.4-9.3-.1-1.3-3.1-2.8-3.1-1.6zM142.7 349.6c-.4.4-.7 1.4-.7 2.3 0 1.1.3 1.2 1.1.4.6-.6 1-1.6.7-2.3-.2-.6-.7-.8-1.1-.4zM138.2 352.4c-.8 1.7-.7 2.7.1 3.6.9 1 .9 1.2-.4.7-1.2-.4-1.5 0-1.1 1.9.2 1.3.8 2.1 1.3 1.8.5-.3.7-1 .4-1.5-.4-.5-.2-.9.2-.9 1.5 0 3.2-3.7 2.6-5.9-.7-2.7-1.7-2.7-3.1.3z"/></svg>